<svg xmlns="http://www.w3.org/2000/svg" xmlns:xlink="http://www.w3.org/1999/xlink" width="500" zoomAndPan="magnify" viewBox="0 0 375 374.999991" height="500" preserveAspectRatio="xMidYMid meet" version="1.0"><defs><g/><clipPath id="d989b23b1f"><path d="M 97 173.023438 L 116.71875 173.023438 L 116.71875 203 L 97 203 Z M 97 173.023438 " clip-rule="nonzero"/></clipPath><clipPath id="d1f47dc61c"><path d="M 94.96875 190 L 115 190 L 115 220.273438 L 94.96875 220.273438 Z M 94.96875 190 " clip-rule="nonzero"/></clipPath></defs><rect x="-37.5" width="450" fill="#ffffff" y="-37.499999" height="449.999989" fill-opacity="1"/><rect x="-37.5" width="450" fill="#ffffff" y="-37.499999" height="449.999989" fill-opacity="1"/><rect x="-37.5" width="450" fill="#ffffff" y="-37.499999" height="449.999989" fill-opacity="1"/><g clip-path="url(#d989b23b1f)"><path fill="#797979" d="M 105.835938 173.144531 C 103.554688 173.414062 101.621094 174.371094 100.0625 175.996094 C 98.769531 177.34375 97.980469 178.917969 97.714844 180.695312 C 97.660156 181.109375 97.605469 183.484375 97.605469 185.96875 L 97.605469 190.507812 L 101.117188 190.507812 L 101.117188 185.863281 C 101.117188 182.042969 101.152344 181.109375 101.28125 180.578125 C 101.90625 178.199219 104.3125 176.507812 107.042969 176.507812 C 109.71875 176.507812 112.253906 178.222656 112.980469 180.535156 C 113.175781 181.152344 113.1875 181.617188 113.1875 187.828125 C 113.1875 193.109375 113.15625 194.585938 113.035156 195.019531 C 112.113281 198.4375 107.800781 200.089844 104.320312 198.363281 C 103.882812 198.144531 103.507812 197.984375 103.5 198.003906 C 103.355469 198.191406 101.875 200.945312 101.90625 200.96875 C 102.238281 201.21875 103.367188 201.738281 104.15625 202 C 104.902344 202.246094 105.507812 202.367188 106.558594 202.441406 C 107.8125 202.550781 108.0625 202.539062 109.117188 202.335938 C 110.5 202.0625 111.597656 201.628906 112.671875 200.933594 C 114.152344 199.96875 115.449219 198.429688 116.085938 196.867188 C 116.675781 195.378906 116.710938 194.847656 116.667969 187.335938 C 116.632812 181.28125 116.613281 180.390625 116.445312 179.859375 C 115.316406 176.148438 112.070312 173.554688 108.03125 173.144531 C 106.8125 173.023438 106.878906 173.023438 105.835938 173.144531 Z M 105.835938 173.144531 " fill-opacity="1" fill-rule="nonzero"/></g><g clip-path="url(#d1f47dc61c)"><path fill="#797979" d="M 102.203125 191.039062 C 101.195312 191.253906 99.710938 191.882812 98.847656 192.46875 C 97.179688 193.597656 95.894531 195.355469 95.28125 197.363281 C 95.039062 198.144531 95.039062 198.289062 94.992188 204.984375 C 94.972656 209.59375 94.992188 212.058594 95.082031 212.578125 C 95.628906 216.105469 98.539062 219.046875 102.390625 219.992188 C 103.574219 220.273438 105.957031 220.25 107.152344 219.9375 C 109.808594 219.230469 112.011719 217.496094 113.144531 215.195312 C 113.988281 213.46875 113.988281 213.445312 114.035156 207.835938 L 114.078125 202.878906 L 110.554688 202.878906 L 110.554688 207.511719 C 110.554688 212.523438 110.53125 212.699219 109.953125 213.835938 C 109.292969 215.128906 107.636719 216.332031 106.078125 216.648438 C 105.253906 216.820312 103.796875 216.800781 103.039062 216.605469 C 101.546875 216.226562 100.054688 215.171875 99.253906 213.945312 C 98.472656 212.753906 98.484375 212.828125 98.484375 205.492188 C 98.484375 199.914062 98.507812 198.808594 98.648438 198.265625 C 99.121094 196.464844 100.867188 194.878906 102.875 194.402344 C 103.597656 194.230469 105.265625 194.230469 105.945312 194.402344 C 106.222656 194.46875 106.824219 194.707031 107.285156 194.921875 C 107.757812 195.140625 108.152344 195.304688 108.183594 195.269531 C 108.414062 195.019531 109.777344 192.417969 109.722656 192.328125 C 109.601562 192.144531 107.703125 191.296875 106.933594 191.101562 C 105.824219 190.820312 103.390625 190.777344 102.203125 191.039062 Z M 102.203125 191.039062 " fill-opacity="1" fill-rule="nonzero"/></g><g fill="#000000" fill-opacity="1"><g transform="translate(187.499992, 193.124987)"><g/></g></g><g fill="#1f255e" fill-opacity="1"><g transform="translate(126.661827, 212.52498)"><g><path d="M 10.28125 0 L 2.640625 0 L 2.640625 -30.390625 L 10.28125 -30.390625 Z M 10.28125 0 "/></g></g></g><g fill="#1f255e" fill-opacity="1"><g transform="translate(139.590251, 212.52498)"><g><path d="M 10.3125 0 L 2.671875 0 L 2.671875 -22.125 L 10.3125 -22.125 Z M 2.484375 -27.640625 C 2.484375 -28.785156 2.800781 -29.632812 3.4375 -30.1875 C 4.070312 -30.75 5.101562 -31.03125 6.53125 -31.03125 C 7.945312 -31.03125 8.976562 -30.742188 9.625 -30.171875 C 10.28125 -29.597656 10.609375 -28.753906 10.609375 -27.640625 C 10.609375 -25.398438 9.25 -24.28125 6.53125 -24.28125 C 3.832031 -24.28125 2.484375 -25.398438 2.484375 -27.640625 Z M 2.484375 -27.640625 "/></g></g></g><g fill="#1f255e" fill-opacity="1"><g transform="translate(152.596792, 212.52498)"><g><path d="M 16.609375 0 L 16.609375 -12.078125 C 16.609375 -13.546875 16.394531 -14.65625 15.96875 -15.40625 C 15.539062 -16.15625 14.859375 -16.53125 13.921875 -16.53125 C 12.640625 -16.53125 11.710938 -16.015625 11.140625 -14.984375 C 10.566406 -13.953125 10.28125 -12.1875 10.28125 -9.6875 L 10.28125 0 L 2.640625 0 L 2.640625 -22.125 L 8.40625 -22.125 L 9.359375 -19.390625 L 9.8125 -19.390625 C 10.457031 -20.429688 11.351562 -21.210938 12.5 -21.734375 C 13.65625 -22.253906 14.984375 -22.515625 16.484375 -22.515625 C 18.929688 -22.515625 20.832031 -21.804688 22.1875 -20.390625 C 23.550781 -18.972656 24.234375 -16.972656 24.234375 -14.390625 L 24.234375 0 Z M 16.609375 0 "/></g></g></g><g fill="#1f255e" fill-opacity="1"><g transform="translate(179.391048, 212.52498)"><g><path d="M 10.046875 -12.4375 C 10.960938 -13.914062 11.75 -15.0625 12.40625 -15.875 L 17.359375 -22.125 L 25.875 -22.125 L 18.203125 -12.71875 L 26.375 0 L 17.640625 0 L 12.796875 -7.9375 L 10.3125 -6.03125 L 10.3125 0 L 2.640625 0 L 2.640625 -30.390625 L 10.3125 -30.390625 L 10.3125 -18.4375 C 10.3125 -16.394531 10.171875 -14.394531 9.890625 -12.4375 Z M 10.046875 -12.4375 "/></g></g></g><g fill="#1f255e" fill-opacity="1"><g transform="translate(205.755659, 212.52498)"><g><path d="M 10.3125 0 L 2.671875 0 L 2.671875 -22.125 L 10.3125 -22.125 Z M 2.484375 -27.640625 C 2.484375 -28.785156 2.800781 -29.632812 3.4375 -30.1875 C 4.070312 -30.75 5.101562 -31.03125 6.53125 -31.03125 C 7.945312 -31.03125 8.976562 -30.742188 9.625 -30.171875 C 10.28125 -29.597656 10.609375 -28.753906 10.609375 -27.640625 C 10.609375 -25.398438 9.25 -24.28125 6.53125 -24.28125 C 3.832031 -24.28125 2.484375 -25.398438 2.484375 -27.640625 Z M 2.484375 -27.640625 "/></g></g></g><g fill="#1f255e" fill-opacity="1"><g transform="translate(218.762201, 212.52498)"><g><path d="M 16.15625 -16.40625 L 11.453125 -16.40625 L 11.453125 0 L 3.8125 0 L 3.8125 -16.40625 L 0.875 -16.40625 L 0.875 -20.15625 L 3.96875 -22.03125 L 3.96875 -22.40625 C 3.96875 -25.320312 4.5625 -27.414062 5.75 -28.6875 C 6.945312 -29.96875 8.859375 -30.609375 11.484375 -30.609375 C 12.503906 -30.609375 13.460938 -30.53125 14.359375 -30.375 C 15.265625 -30.21875 16.316406 -29.941406 17.515625 -29.546875 L 15.875 -24.609375 C 14.9375 -24.867188 14.019531 -25 13.125 -25 C 12.539062 -25 12.113281 -24.816406 11.84375 -24.453125 C 11.582031 -24.097656 11.453125 -23.519531 11.453125 -22.71875 L 11.453125 -22.125 L 16.15625 -22.125 Z M 16.15625 -16.40625 "/></g></g></g><g fill="#1f255e" fill-opacity="1"><g transform="translate(235.284024, 212.52498)"><g><path d="M -0.046875 -22.125 L 8.015625 -22.125 L 11.765625 -9.4375 C 11.941406 -8.769531 12.0625 -7.96875 12.125 -7.03125 L 12.28125 -7.03125 C 12.382812 -7.925781 12.539062 -8.710938 12.75 -9.390625 L 16.609375 -22.125 L 24.390625 -22.125 L 15.640625 1.40625 C 14.523438 4.40625 13.148438 6.519531 11.515625 7.75 C 9.878906 8.988281 7.75 9.609375 5.125 9.609375 C 4.101562 9.609375 3.0625 9.5 2 9.28125 L 2 3.28125 C 2.6875 3.4375 3.472656 3.515625 4.359375 3.515625 C 5.035156 3.515625 5.625 3.382812 6.125 3.125 C 6.632812 2.863281 7.078125 2.492188 7.453125 2.015625 C 7.835938 1.546875 8.242188 0.769531 8.671875 -0.3125 Z M -0.046875 -22.125 "/></g></g></g><g fill="#1f255e" fill-opacity="1"><g transform="translate(259.676177, 212.52498)"><g><path d="M 1.6875 -3.25 C 1.6875 -4.445312 2.039062 -5.367188 2.75 -6.015625 C 3.457031 -6.671875 4.488281 -7 5.84375 -7 C 7.132812 -7 8.125 -6.671875 8.8125 -6.015625 C 9.5 -5.367188 9.84375 -4.445312 9.84375 -3.25 C 9.84375 -2.070312 9.488281 -1.15625 8.78125 -0.5 C 8.070312 0.15625 7.09375 0.484375 5.84375 0.484375 C 4.550781 0.484375 3.535156 0.160156 2.796875 -0.484375 C 2.054688 -1.140625 1.6875 -2.0625 1.6875 -3.25 Z M 1.6875 -3.25 "/></g></g></g></svg>