<svg xmlns="http://www.w3.org/2000/svg" xmlns:xlink="http://www.w3.org/1999/xlink" width="535" zoomAndPan="magnify" viewBox="0 0 401.25 119.999999" height="160" preserveAspectRatio="xMidYMid meet" version="1.0"><defs><g/><clipPath id="8686ac58df"><path d="M 14 3.617188 L 59.140625 3.617188 L 59.140625 74 L 14 74 Z M 14 3.617188 " clip-rule="nonzero"/></clipPath><clipPath id="a9ae78512d"><path d="M 8.234375 46 L 53 46 L 53 115.910156 L 8.234375 115.910156 Z M 8.234375 46 " clip-rule="nonzero"/></clipPath></defs><g fill="#1f255e" fill-opacity="1"><g transform="translate(74.166385, 93.663434)"><g><path d="M 23.0625 0 L 5.921875 0 L 5.921875 -68.203125 L 23.0625 -68.203125 Z M 23.0625 0 "/></g></g></g><g fill="#1f255e" fill-opacity="1"><g transform="translate(103.180733, 93.663434)"><g><path d="M 23.140625 0 L 6 0 L 6 -49.65625 L 23.140625 -49.65625 Z M 5.5625 -62.015625 C 5.5625 -64.585938 6.273438 -66.5 7.703125 -67.75 C 9.140625 -69.007812 11.453125 -69.640625 14.640625 -69.640625 C 17.828125 -69.640625 20.148438 -69 21.609375 -67.71875 C 23.066406 -66.4375 23.796875 -64.535156 23.796875 -62.015625 C 23.796875 -56.992188 20.742188 -54.484375 14.640625 -54.484375 C 8.585938 -54.484375 5.5625 -56.992188 5.5625 -62.015625 Z M 5.5625 -62.015625 "/></g></g></g><g fill="#1f255e" fill-opacity="1"><g transform="translate(132.370394, 93.663434)"><g><path d="M 37.25 0 L 37.25 -27.09375 C 37.25 -30.394531 36.773438 -32.882812 35.828125 -34.5625 C 34.878906 -36.238281 33.351562 -37.078125 31.25 -37.078125 C 28.351562 -37.078125 26.265625 -35.921875 24.984375 -33.609375 C 23.703125 -31.304688 23.0625 -27.347656 23.0625 -21.734375 L 23.0625 0 L 5.921875 0 L 5.921875 -49.65625 L 18.84375 -49.65625 L 21 -43.53125 L 22 -43.53125 C 23.457031 -45.863281 25.476562 -47.613281 28.0625 -48.78125 C 30.65625 -49.945312 33.632812 -50.53125 37 -50.53125 C 42.488281 -50.53125 46.757812 -48.9375 49.8125 -45.75 C 52.863281 -42.570312 54.390625 -38.085938 54.390625 -32.296875 L 54.390625 0 Z M 37.25 0 "/></g></g></g><g fill="#1f255e" fill-opacity="1"><g transform="translate(192.502848, 93.663434)"><g><path d="M 22.53125 -27.921875 C 24.601562 -31.222656 26.367188 -33.796875 27.828125 -35.640625 L 38.96875 -49.65625 L 58.078125 -49.65625 L 40.84375 -28.53125 L 59.171875 0 L 39.578125 0 L 28.703125 -17.796875 L 23.140625 -13.546875 L 23.140625 0 L 5.921875 0 L 5.921875 -68.203125 L 23.140625 -68.203125 L 23.140625 -41.375 C 23.140625 -36.789062 22.816406 -32.304688 22.171875 -27.921875 Z M 22.53125 -27.921875 "/></g></g></g><g fill="#1f255e" fill-opacity="1"><g transform="translate(251.671081, 93.663434)"><g><path d="M 23.140625 0 L 6 0 L 6 -49.65625 L 23.140625 -49.65625 Z M 5.5625 -62.015625 C 5.5625 -64.585938 6.273438 -66.5 7.703125 -67.75 C 9.140625 -69.007812 11.453125 -69.640625 14.640625 -69.640625 C 17.828125 -69.640625 20.148438 -69 21.609375 -67.71875 C 23.066406 -66.4375 23.796875 -64.535156 23.796875 -62.015625 C 23.796875 -56.992188 20.742188 -54.484375 14.640625 -54.484375 C 8.585938 -54.484375 5.5625 -56.992188 5.5625 -62.015625 Z M 5.5625 -62.015625 "/></g></g></g><g fill="#1f255e" fill-opacity="1"><g transform="translate(280.860742, 93.663434)"><g><path d="M 36.25 -36.8125 L 25.6875 -36.8125 L 25.6875 0 L 8.546875 0 L 8.546875 -36.8125 L 1.96875 -36.8125 L 1.96875 -45.234375 L 8.890625 -49.4375 L 8.890625 -50.28125 C 8.890625 -56.820312 10.226562 -61.523438 12.90625 -64.390625 C 15.582031 -67.253906 19.867188 -68.6875 25.765625 -68.6875 C 28.046875 -68.6875 30.203125 -68.507812 32.234375 -68.15625 C 34.265625 -67.800781 36.625 -67.1875 39.3125 -66.3125 L 35.640625 -55.234375 C 33.535156 -55.816406 31.472656 -56.109375 29.453125 -56.109375 C 28.140625 -56.109375 27.179688 -55.703125 26.578125 -54.890625 C 25.984375 -54.085938 25.6875 -52.78125 25.6875 -50.96875 L 25.6875 -49.65625 L 36.25 -49.65625 Z M 36.25 -36.8125 "/></g></g></g><g fill="#1f255e" fill-opacity="1"><g transform="translate(317.939501, 93.663434)"><g><path d="M -0.09375 -49.65625 L 17.96875 -49.65625 L 26.390625 -21.171875 C 26.796875 -19.679688 27.070312 -17.882812 27.21875 -15.78125 L 27.5625 -15.78125 C 27.800781 -17.789062 28.15625 -19.554688 28.625 -21.078125 L 37.25 -49.65625 L 54.75 -49.65625 L 35.109375 3.15625 C 32.597656 9.875 29.507812 14.617188 25.84375 17.390625 C 22.175781 20.171875 17.390625 21.5625 11.484375 21.5625 C 9.203125 21.5625 6.863281 21.3125 4.46875 20.8125 L 4.46875 7.359375 C 6.019531 7.710938 7.789062 7.890625 9.78125 7.890625 C 11.289062 7.890625 12.613281 7.597656 13.75 7.015625 C 14.894531 6.429688 15.890625 5.601562 16.734375 4.53125 C 17.585938 3.46875 18.492188 1.722656 19.453125 -0.703125 Z M -0.09375 -49.65625 "/></g></g></g><g fill="#1f255e" fill-opacity="1"><g transform="translate(372.681086, 93.663434)"><g><path d="M 3.765625 -7.28125 C 3.765625 -9.96875 4.5625 -12.039062 6.15625 -13.5 C 7.75 -14.957031 10.066406 -15.6875 13.109375 -15.6875 C 15.992188 -15.6875 18.210938 -14.957031 19.765625 -13.5 C 21.316406 -12.039062 22.09375 -9.96875 22.09375 -7.28125 C 22.09375 -4.644531 21.296875 -2.585938 19.703125 -1.109375 C 18.109375 0.359375 15.910156 1.09375 13.109375 1.09375 C 10.210938 1.09375 7.929688 0.363281 6.265625 -1.09375 C 4.597656 -2.550781 3.765625 -4.613281 3.765625 -7.28125 Z M 3.765625 -7.28125 "/></g></g></g><g clip-path="url(#8686ac58df)"><path fill="#797979" d="M 33.671875 3.898438 C 28.328125 4.542969 23.808594 6.8125 20.160156 10.683594 C 17.128906 13.878906 15.28125 17.621094 14.664062 21.847656 C 14.535156 22.828125 14.40625 28.476562 14.40625 34.382812 L 14.40625 45.164062 L 22.625 45.164062 L 22.625 34.125 C 22.625 25.046875 22.703125 22.828125 23.011719 21.566406 C 24.476562 15.917969 30.101562 11.894531 36.496094 11.894531 C 42.761719 11.894531 48.695312 15.96875 50.390625 21.464844 C 50.851562 22.933594 50.878906 24.042969 50.878906 38.792969 C 50.878906 51.351562 50.800781 54.859375 50.519531 55.890625 C 48.363281 64.015625 38.269531 67.933594 30.125 63.835938 C 29.097656 63.320312 28.226562 62.933594 28.199219 62.984375 C 27.867188 63.421875 24.398438 69.972656 24.476562 70.023438 C 25.246094 70.617188 27.890625 71.855469 29.738281 72.472656 C 31.488281 73.066406 32.898438 73.351562 35.363281 73.53125 C 38.292969 73.789062 38.882812 73.761719 41.351562 73.273438 C 44.585938 72.628906 47.15625 71.597656 49.671875 69.945312 C 53.140625 67.652344 56.167969 63.988281 57.660156 60.277344 C 59.046875 56.742188 59.125 55.476562 59.019531 37.632812 C 58.945312 23.242188 58.890625 21.128906 58.507812 19.863281 C 55.863281 11.042969 48.257812 4.878906 38.804688 3.898438 C 35.957031 3.617188 36.109375 3.617188 33.671875 3.898438 Z M 33.671875 3.898438 " fill-opacity="1" fill-rule="nonzero"/></g><g clip-path="url(#a9ae78512d)"><path fill="#797979" d="M 25.167969 46.425781 C 22.804688 46.941406 19.335938 48.4375 17.308594 49.832031 C 13.40625 52.511719 10.398438 56.691406 8.960938 61.460938 C 8.394531 63.316406 8.394531 63.65625 8.292969 79.566406 C 8.242188 90.527344 8.292969 96.382812 8.496094 97.617188 C 9.78125 106 16.589844 112.988281 25.605469 115.234375 C 28.378906 115.902344 33.953125 115.851562 36.75 115.105469 C 42.96875 113.425781 48.128906 109.300781 50.777344 103.832031 C 52.753906 99.734375 52.753906 99.683594 52.859375 86.347656 L 52.960938 74.5625 L 44.714844 74.5625 L 44.714844 85.574219 C 44.714844 97.488281 44.664062 97.902344 43.304688 100.609375 C 41.761719 103.679688 37.882812 106.542969 34.238281 107.289062 C 32.3125 107.703125 28.894531 107.652344 27.121094 107.1875 C 23.628906 106.285156 20.136719 103.785156 18.261719 100.867188 C 16.4375 98.03125 16.464844 98.210938 16.464844 80.777344 C 16.464844 67.523438 16.515625 64.890625 16.847656 63.601562 C 17.953125 59.320312 22.035156 55.554688 26.738281 54.421875 C 28.433594 54.007812 32.335938 54.007812 33.929688 54.421875 C 34.570312 54.578125 35.984375 55.144531 37.0625 55.660156 C 38.167969 56.175781 39.09375 56.5625 39.167969 56.484375 C 39.710938 55.890625 42.894531 49.703125 42.765625 49.496094 C 42.484375 49.058594 38.039062 47.046875 36.242188 46.582031 C 33.644531 45.910156 27.941406 45.808594 25.167969 46.425781 Z M 25.167969 46.425781 " fill-opacity="1" fill-rule="nonzero"/></g></svg>